<svg xmlns="http://www.w3.org/2000/svg" viewBox="0 0 512 512" role="img" aria-label="CatalystFDM"><defs><clipPath id="dh-in"><path d="M250.0,140.0 C274.0,118.0 306.0,110.0 334.0,114.0 C352.0,114.0 368.0,110.0 378.0,108.0 C382.0,118.0 388.0,128.0 398.0,132.0 C426.0,138.0 450.0,144.0 468.0,148.0 C474.0,142.0 480.0,136.0 486.0,136.0 C492.0,148.0 498.0,164.0 502.0,178.0 C503.0,186.0 500.0,190.0 494.0,190.0 C494.0,198.0 492.0,206.0 489.0,213.0 C486.0,205.0 482.0,197.0 478.0,192.0 C450.0,198.0 420.0,206.0 390.0,214.0 C412.0,219.0 434.0,222.0 452.0,224.0 C454.0,218.0 456.0,212.0 458.0,206.0 C461.0,212.0 463.0,218.0 466.0,224.0 C476.0,226.0 482.0,232.0 478.0,240.0 C450.0,252.0 410.0,258.0 372.0,256.0 C344.0,254.0 320.0,246.0 304.0,234.0 C276.0,210.0 254.0,180.0 250.0,140.0Z"/></clipPath><mask id="dh-mane" maskUnits="userSpaceOnUse" x="-100" y="-100" width="800" height="800"><rect x="-100" y="-100" width="800" height="800" fill="#fff"/><path d="M250.0,140.0 C274.0,118.0 306.0,110.0 334.0,114.0 C352.0,114.0 368.0,110.0 378.0,108.0 C382.0,118.0 388.0,128.0 398.0,132.0 C426.0,138.0 450.0,144.0 468.0,148.0 C474.0,142.0 480.0,136.0 486.0,136.0 C492.0,148.0 498.0,164.0 502.0,178.0 C503.0,186.0 500.0,190.0 494.0,190.0 C494.0,198.0 492.0,206.0 489.0,213.0 C486.0,205.0 482.0,197.0 478.0,192.0 C450.0,198.0 420.0,206.0 390.0,214.0 C412.0,219.0 434.0,222.0 452.0,224.0 C454.0,218.0 456.0,212.0 458.0,206.0 C461.0,212.0 463.0,218.0 466.0,224.0 C476.0,226.0 482.0,232.0 478.0,240.0 C450.0,252.0 410.0,258.0 372.0,256.0 C344.0,254.0 320.0,246.0 304.0,234.0 C276.0,210.0 254.0,180.0 250.0,140.0Z"/><path d="M362.0,256.0 L354.9,263.8 L349.3,272.6 L346.3,282.7 L344.5,293.0 L343.3,303.5 L342.4,314.0 L341.8,324.5 L342.1,335.0 L342.7,345.5 L343.0,356.0 L342.4,366.5 L341.0,376.9 L339.2,387.3 L337.2,397.6 L334.7,407.8 L331.6,417.9 L327.9,427.7 L323.3,437.2 L317.8,446.1 L311.8,454.8 L305.5,463.2 L299.0,471.5 L292.5,479.7 L286.0,488.0 L142.0,402.0 L151.5,394.1 L161.1,386.3 L170.5,378.3 L179.6,370.0 L188.1,361.0 L195.3,351.0 L201.0,340.1 L205.5,328.6 L209.3,316.8 L212.6,305.0 L215.8,293.0 L218.4,281.0 L220.5,268.8 L222.5,256.6 L224.5,244.4 L226.7,232.3 L228.8,220.1 L230.9,207.9 L233.1,195.8 L235.7,183.8 L239.5,172.0 L244.8,160.9 L251.3,150.3 L258.0,140.0Z"/><rect transform="translate(390 214) rotate(-8)" width="126" height="86" rx="12"/></mask><mask id="dh-back" maskUnits="userSpaceOnUse" x="-100" y="-100" width="800" height="800"><rect x="-100" y="-100" width="800" height="800" fill="#fff"/><g fill="#000" stroke="#000" stroke-width="16"><rect transform="translate(390 214) rotate(-8)" width="126" height="86" rx="12"/></g></mask><mask id="dh-env" maskUnits="userSpaceOnUse" x="-100" y="-100" width="800" height="800"><rect x="-100" y="-100" width="800" height="800" fill="#fff"/><path d="M250.0,140.0 C274.0,118.0 306.0,110.0 334.0,114.0 C352.0,114.0 368.0,110.0 378.0,108.0 C382.0,118.0 388.0,128.0 398.0,132.0 C426.0,138.0 450.0,144.0 468.0,148.0 C474.0,142.0 480.0,136.0 486.0,136.0 C492.0,148.0 498.0,164.0 502.0,178.0 C503.0,186.0 500.0,190.0 494.0,190.0 C494.0,198.0 492.0,206.0 489.0,213.0 C486.0,205.0 482.0,197.0 478.0,192.0 C450.0,198.0 420.0,206.0 390.0,214.0 C360.0,222.0 330.0,230.0 304.0,234.0 C276.0,210.0 254.0,180.0 250.0,140.0Z"/></mask><mask id="dh-face" maskUnits="userSpaceOnUse" x="-100" y="-100" width="800" height="800"><rect x="-100" y="-100" width="800" height="800" fill="#fff"/><g fill="#000" stroke="#000" stroke-width="16"><rect transform="translate(390 214) rotate(-8)" width="126" height="86" rx="12"/></g><path d="M250.0,140.0 C274.0,118.0 306.0,110.0 334.0,114.0 C352.0,114.0 368.0,110.0 378.0,108.0 C382.0,118.0 388.0,128.0 398.0,132.0 C426.0,138.0 450.0,144.0 468.0,148.0 C474.0,142.0 480.0,136.0 486.0,136.0 C492.0,148.0 498.0,164.0 502.0,178.0 C503.0,186.0 500.0,190.0 494.0,190.0 C494.0,198.0 492.0,206.0 489.0,213.0 C486.0,205.0 482.0,197.0 478.0,192.0 C450.0,198.0 420.0,206.0 390.0,214.0 C360.0,222.0 330.0,230.0 304.0,234.0 C276.0,210.0 254.0,180.0 250.0,140.0Z" fill="#fff"/></mask><mask id="dh-cap" maskUnits="userSpaceOnUse" x="-100" y="-100" width="800" height="800"><rect x="-100" y="-100" width="800" height="800" fill="#fff"/><path d="M474,156 C484,154 490,160 488,168" fill="none" stroke="#000" stroke-width="6" stroke-linecap="round"/></mask></defs><g transform="translate(-67.15 -15.37) scale(1.0684)"><g mask="url(#dh-mane)"><path d="M252.1,201.6C223.7,182.8 182.6,168.9 148.4,169.2C161.7,179.2 175.6,188.2 188.6,198.6C202.2,209.6 214.7,221.9 227.8,233.4C235.9,222.8 244.0,212.2 252.1,201.6Z" fill="#ffffff"/><path d="M236.5,213.2C195.9,200.3 142.0,194.8 99.8,201.5C119.7,209.0 140.0,215.2 159.8,223.1C181.1,231.5 201.6,241.5 222.4,250.7C227.1,238.2 231.8,225.7 236.5,213.2Z" fill="#3ea2f0"/><path d="M225.0,228.8C181.0,227.5 126.3,237.0 86.1,255.0C108.0,256.7 129.9,257.2 151.7,259.3C175.2,261.6 198.4,265.5 221.8,268.6C222.9,255.3 223.9,242.0 225.0,228.8Z" fill="#ffffff"/><path d="M218.2,246.9C176.9,257.4 128.3,281.3 96.1,309.4C116.9,305.1 137.4,299.7 158.4,295.9C180.9,291.8 203.5,289.3 226.1,286.1C223.5,273.0 220.8,259.9 218.2,246.9Z" fill="#3ea2f0"/><path d="M216.9,266.0C187.5,283.3 157.0,314.1 142.2,345.0C157.1,337.5 171.3,328.9 186.3,321.8C202.2,314.3 218.7,308.5 234.8,301.8C228.8,289.8 222.9,277.9 216.9,266.0Z" fill="#ffffff"/></g><g mask="url(#dh-back)"><path d="M283.7,112.9C255.4,83.3 214.0,61.4 172.0,72.0C180.4,74.4 188.9,75.9 197.2,78.7C224.8,88.1 245.1,106.8 260.3,131.1C268.1,125.0 275.9,119.0 283.7,112.9Z" fill="#3ea2f0"/><path d="M323.2,106.0C306.0,68.9 277.8,39.3 238.3,26.2C227.9,22.8 217.0,20.3 206.0,20.0C215.1,25.6 224.6,30.2 233.5,36.2C262.7,55.9 280.8,83.9 288.8,118.0C300.3,114.0 311.7,110.0 323.2,106.0Z" fill="#ffffff"/><path d="M362.0,256.0C356.5,259.9 350.9,263.4 346.7,268.9C338.7,279.6 329.1,313.1 328.2,326.6C327.3,340.1 330.3,353.4 328.6,366.9C327.3,377.6 324.6,388.0 323.0,398.5C321.1,410.3 320.4,421.9 316.2,433.2C308.9,452.8 296.8,470.3 286.0,488.0C310.2,460.9 338.0,441.7 349.5,404.9C356.9,381.5 357.8,350.8 355.5,326.5C353.9,309.8 349.6,291.1 353.2,274.4C354.7,267.5 359.0,262.2 362.0,256.0Z" fill="#ffffff"/><path d="M436.0,190.0C419.6,191.4 402.9,195.8 386.4,194.3C376.3,193.4 366.7,189.9 356.7,188.5C341.6,186.4 321.8,189.5 309.8,199.5C292.6,213.7 288.4,245.2 288.9,266.3C289.3,284.3 293.0,302.0 293.2,320.0C293.7,347.8 294.5,376.5 285.7,403.3C277.4,428.7 261.3,451.1 248.0,474.0C263.5,453.0 282.2,434.2 295.1,411.2C308.9,386.8 314.8,358.1 318.7,330.7C323.2,298.7 302.2,243.0 328.5,217.4C344.2,202.0 367.4,208.4 386.7,206.1C403.7,204.0 420.3,196.4 436.0,190.0Z" fill="#3ea2f0"/><path d="M340.0,160.0C331.2,157.9 322.3,154.9 313.2,154.7C294.9,154.2 281.0,168.4 274.4,184.2C261.0,216.9 262.3,254.5 260.7,289.1C259.9,308.9 258.0,328.9 255.2,348.5C252.0,370.1 246.7,392.1 236.6,411.6C228.9,426.4 219.1,440.0 210.0,454.0C220.2,441.8 231.8,430.8 241.7,418.4C259.9,395.7 277.1,358.6 283.2,330.0C287.8,308.6 286.8,285.5 287.8,263.7C288.4,250.1 290.5,236.5 290.9,223.0C291.4,205.7 287.1,183.2 300.8,169.6C311.6,158.9 326.2,161.5 340.0,160.0Z" fill="#ffffff"/><path d="M292.0,130.0C284.4,132.1 276.4,133.4 270.2,138.7C250.2,155.5 241.6,204.2 239.9,229.3C238.0,257.9 232.6,286.0 229.0,314.4C226.5,334.3 224.6,353.3 216.2,371.8C206.0,394.3 190.1,411.6 174.0,430.0C187.5,418.0 202.6,407.8 214.6,394.1C233.2,372.6 246.9,346.6 253.3,318.8C256.7,304.0 258.0,288.6 259.9,273.6C262.4,254.9 265.3,235.7 265.4,216.8C265.5,196.4 262.6,160.4 274.8,143.0C279.1,137.0 286.1,134.2 292.0,130.0Z" fill="#3ea2f0"/><path d="M258.0,140.0C248.9,150.2 239.5,160.1 233.3,172.4C217.0,204.7 213.8,241.4 207.3,276.4C205.5,286.6 202.3,296.5 200.0,306.6C197.3,318.9 195.9,331.3 191.1,343.2C181.5,367.2 159.8,384.1 142.0,402.0C163.5,385.5 188.8,373.4 204.3,350.3C223.8,321.3 229.4,287.3 234.8,253.6C236.4,243.9 238.9,234.2 239.9,224.5C241.7,208.4 240.5,192.2 243.9,176.2C246.6,163.3 253.4,152.2 258.0,140.0Z" fill="#ffffff"/></g><g mask="url(#dh-face)"><g clip-path="url(#dh-in)"><path d="M436.0,120.0 C504.0,120.0 504.0,120.0 504.0,120.0 C504.0,300.0 504.0,300.0 504.0,300.0 C444.0,300.0 444.0,300.0 444.0,300.0 C446.0,250.0 450.0,222.0 470.0,204.0 C458.0,180.0 446.0,150.0 436.0,120.0Z" fill="#ffffff"/></g><path d="M250.0,140.0C253.8,138.6 257.3,136.1 260.9,134.3C270.6,129.3 280.8,125.5 291.5,123.4C301.6,121.3 312.5,120.3 322.8,120.6C327.6,120.7 332.2,121.6 337.0,121.5C350.8,121.2 364.3,118.5 377.7,115.7C373.9,114.8 375.9,115.6 371.9,112.7C375.7,122.4 382.2,131.9 391.4,137.1C399.1,141.5 430.3,146.9 441.0,149.5C446.9,150.8 465.8,156.5 470.5,155.0C476.4,153.1 479.3,145.4 485.5,143.6C482.3,143.1 484.1,143.6 480.4,141.3C480.3,143.2 482.7,146.5 483.4,148.3C486.0,154.3 496.1,177.3 494.4,182.7C494.6,182.6 494.7,182.5 494.8,182.4C491.3,182.6 490.5,184.5 487.3,187.1C486.0,194.5 485.4,201.6 482.7,208.7C484.2,207.6 485.7,206.6 487.2,205.6C489.9,206.6 492.7,207.7 495.4,208.7C492.3,200.8 487.5,186.7 478.2,184.7C474.6,183.9 457.9,188.8 453.2,190.0C431.6,195.2 410.0,200.7 388.6,206.6C387.5,211.0 386.5,215.3 385.4,219.7C400.7,226.2 421.3,227.7 437.8,229.9C444.1,230.7 452.3,233.1 457.6,228.7C460.2,226.6 463.4,213.7 464.6,209.9C462.9,211.1 461.2,212.3 459.4,213.4C456.9,212.5 454.4,211.6 451.9,210.7C454.6,216.4 456.7,226.2 461.8,230.1C463.2,231.2 472.5,232.3 471.6,235.8C472.4,234.7 471.9,235.3 473.3,233.9C468.6,234.8 463.8,237.4 459.1,238.9C449.1,241.9 438.9,244.0 428.7,245.7C399.5,250.3 359.7,251.2 331.0,243.9C321.6,241.5 313.2,237.0 304.0,234.0C311.9,244.5 326.7,250.9 338.7,255.2C371.4,267.0 406.7,265.3 440.3,258.9C449.4,257.1 474.0,251.7 481.0,246.8C484.3,244.4 486.0,241.6 486.5,237.6C488.1,226.5 479.0,219.8 469.5,217.1C471.0,218.4 470.2,217.7 472.0,219.3C470.8,216.6 467.0,205.1 465.3,203.9C462.6,202.0 459.4,200.5 456.5,198.7C448.1,207.6 449.0,209.2 445.5,219.7C447.6,217.3 446.2,218.7 450.5,216.4C448.7,215.3 436.7,214.6 433.7,214.2C420.2,212.3 406.8,210.0 393.5,207.1C394.1,207.6 394.8,208.0 395.4,208.5C394.8,212.6 394.2,216.7 393.6,220.8C421.7,214.1 449.3,205.9 477.5,199.8C476.1,199.5 474.8,198.4 473.3,198.3C474.7,200.3 481.5,214.6 481.6,214.7C484.6,216.8 487.8,218.3 490.9,220.1C492.8,218.1 494.9,216.3 496.6,214.2C499.9,210.3 501.2,197.4 501.4,192.4C500.0,195.3 501.1,193.5 497.3,197.1C505.0,196.2 509.3,189.1 509.7,181.9C510.2,171.2 501.0,151.0 496.5,140.8C494.5,136.2 492.8,130.7 487.5,128.8C479.7,126.0 468.9,136.5 463.9,141.5C466.4,140.5 465.0,140.9 468.0,140.3C452.1,136.7 436.3,132.9 420.5,129.3C413.9,127.8 403.3,127.0 397.8,123.5C392.9,120.4 389.6,115.2 387.1,110.1C386.5,108.8 385.9,106.6 385.1,105.6C383.6,103.9 381.9,102.5 380.3,101.0C367.6,101.0 355.1,105.3 342.4,106.2C332.2,106.9 322.0,105.0 311.7,105.8C291.7,107.3 260.1,121.7 250.0,140.0Z" fill="#ffffff"/><path d="M314.0,138.0C330.8,138.8 363.1,124.9 379.4,118.7C380.3,113.5 380.0,116.4 380.0,110.0C375.8,105.1 378.0,107.1 373.8,103.7C364.9,107.1 355.4,110.2 346.9,114.6C337.9,119.2 320.1,130.3 314.0,138.0Z" fill="#ffffff"/><path d="M326,148 C340,132 364,128 384,140 C366,156 342,158 326,148Z" fill="#ffffff"/></g><g mask="url(#dh-env)"><g transform="translate(390 214) rotate(-8)"><rect x="7.0" y="7.0" width="112" height="72" rx="8.5" fill="none" stroke="#ffffff" stroke-width="14"/><g fill="none" stroke="#3ea2f0" stroke-linecap="round" stroke-linejoin="round"><path d="M63,27 L63,50" stroke-width="12"/><path d="M50,39 L63,52 L76,39" stroke-width="12"/><path d="M43,65 L83,65" stroke-width="9"/></g></g></g></g></svg>
